<svg version="1.2" xmlns="http://www.w3.org/2000/svg" viewBox="504 485 272 53" width="272" height="53">
	<title>pole_artistique_4001_berri</title>
	<style>
		.s0 { fill: #000000 } 
		.s1 { fill: none;stroke: #000000;stroke-miterlimit:10;stroke-width: 1.5 } 
	</style>
	<g id="Layer 1">
		<path class="s0" d="m536.3 513.9c0 2-1.5 3.3-4 3.3h-1.9v2.5h-2.1v-9.2h4c2.5 0 4 1.3 4 3.3zm-2.1 0c0-1-0.7-1.6-2-1.6h-1.7v3.2h1.7c1.3 0 2-0.6 2-1.6z"/>
		<path class="s0" d="m547.7 515.1c0 2.7-2.1 4.8-5 4.8-2.9 0-5-2-5-4.8 0-2.8 2.1-4.8 5-4.8 2.9 0 5 2 5 4.8zm-2.2 0c0-1.7-1.2-2.9-2.9-2.9-1.7 0-2.9 1.2-2.9 2.9 0 1.7 1.2 2.9 2.9 2.9 1.7 0 2.9-1.2 2.9-2.9zm-4-5.3h-1.5l1.7-1.9h1.8l1.7 1.9h-1.5l-1.1-1z"/>
		<path class="s0" d="m549.7 510.5h2.1v7.5h4.6v1.7h-6.7z"/>
		<path class="s0" d="m565.1 518v1.7h-7.1v-9.2h7v1.7h-4.8v2h4.3v1.7h-4.3v2.1h5z"/>
		<path class="s0" d="m577.8 517.7h-4.3l-0.8 2h-2.2l4.1-9.2h2.1l4.1 9.2h-2.2zm-0.7-1.6l-1.5-3.5-1.5 3.5h2.9z"/>
		<path class="s0" d="m588.6 519.7l-1.8-2.6h-2v2.6h-2.1v-9.2h4c2.5 0 4 1.3 4 3.3 0 2-0.7 2.4-1.9 2.9l2.1 3zm-2-7.4h-1.7v3.2h1.7c1.3 0 2-0.6 2-1.6 0-1-0.7-1.6-2-1.6z"/>
		<path class="s0" d="m595.1 512.3h-2.9v-1.7h8v1.7h-2.9v7.5h-2.1v-7.5z"/>
		<path class="s0" d="m602.1 510.5h2.1v9.2h-2.1z"/>
		<path class="s0" d="m606.5 518.8l0.7-1.6c0.8 0.6 1.9 1 3 1 1.1 0 1.8-0.4 1.8-1 0-1.7-5.3-0.5-5.3-4 0-3.5 1.3-2.9 3.9-2.9 2.6 0 2.3 0.3 3.2 0.8l-0.7 1.6c-0.9-0.5-1.7-0.7-2.5-0.7-1.3 0-1.7 0.5-1.7 1.1 0 1.7 5.3 0.5 5.3 3.9 0 3.4-1.3 2.9-3.9 2.9-2.6 0-2.9-0.4-3.7-1.1z"/>
		<path class="s0" d="m618.5 512.3h-2.9v-1.7h8v1.7h-2.9v7.5h-2.1v-7.5z"/>
		<path class="s0" d="m625.6 510.5h2.1v9.2h-2.1z"/>
		<path class="s0" d="m640.6 520.7c-0.6 0.7-1.5 1.1-2.5 1.1-1 0-2.3-0.5-3.7-2-2.5-0.3-4.3-2.2-4.3-4.7 0-2.5 2.1-4.8 5-4.8 2.9 0 5 2 5 4.8 0 2.8-1.3 3.9-3.3 4.5 0.4 0.5 0.8 0.6 1.3 0.6 0.5 0 1.1-0.2 1.5-0.7l0.9 1.1zm-5.5-2.6c1.6 0 2.9-1.2 2.9-2.9 0-1.7-1.2-2.9-2.9-2.9-1.7 0-2.9 1.2-2.9 2.9 0 1.7 1.2 2.9 2.9 2.9z"/>
		<path class="s0" d="m642.2 515.7v-5.1h2.1v5.1c0 1.7 0.8 2.5 2 2.5 1.2 0 2-0.7 2-2.5v-5.1h2.1v5.1c0 2.7-1.6 4.2-4.2 4.2-2.6 0-4.2-1.5-4.2-4.2z"/>
		<path class="s0" d="m660.2 518v1.7h-7.1v-9.2h7v1.7h-4.8v2h4.3v1.7h-4.3v2.1h5z"/>
		<path class="s0" d="m674.7 517.8h-1.5v1.9h-2.1v-1.9h-5v-1.4l4.3-5.8h2.2l-4 5.5h2.5v-1.7h2v1.7h1.5v1.7z"/>
		<path class="s0" d="m675.5 515.1c0-3 1.7-4.8 3.9-4.8 2.2 0 3.9 1.7 3.9 4.8 0 3.1-1.7 4.8-3.9 4.8-2.2 0-3.9-1.7-3.9-4.8zm5.8 0c0-2.1-0.7-3-1.8-3-1.1 0-1.8 0.9-1.8 3 0 2.1 0.7 3 1.8 3 1.1 0 1.8-0.9 1.8-3z"/>
		<path class="s0" d="m685.7 515.1c0-3 1.7-4.8 3.9-4.8 2.2 0 3.9 1.7 3.9 4.8 0 3.1-1.7 4.8-3.9 4.8-2.2 0-3.9-1.7-3.9-4.8zm5.7 0c0-2.1-0.7-3-1.8-3-1.1 0-1.8 0.9-1.8 3 0 2.1 0.7 3 1.8 3 1.1 0 1.8-0.9 1.8-3z"/>
		<path class="s0" d="m699.4 510.5v9.2h-2.1v-7.5h-1.8v-1.7h4z"/>
		<path class="s0" d="m715.2 517.2c0 1.6-1.3 2.5-3.7 2.5h-4.8v-9.2h4.5c2.3 0 3.5 1 3.5 2.4 0 1.4-0.5 1.6-1.2 2 1 0.3 1.7 1.1 1.7 2.3zm-6.4-5.1v2.2h2.1c1 0 1.6-0.4 1.6-1.1 0-0.7-0.6-1.1-1.6-1.1zm4.2 4.9c0-0.8-0.6-1.1-1.7-1.1h-2.5v2.3h2.5c1.1 0 1.7-0.3 1.7-1.1z"/>
		<path class="s0" d="m724.2 518v1.7h-7.1v-9.2h6.9v1.7h-4.8v2h4.3v1.7h-4.3v2.1z"/>
		<path class="s0" d="m732.7 519.7l-1.8-2.6h-2v2.6h-2.1v-9.2h4c2.5 0 4 1.3 4 3.3 0 2-0.7 2.4-1.9 2.9l2.1 3zm-2-7.4h-1.7v3.2h1.7c1.3 0 2-0.6 2-1.6 0-1-0.7-1.6-2-1.6z"/>
		<path class="s0" d="m743.1 519.7l-1.8-2.6h-2v2.6h-2.1v-9.2h4c2.5 0 4 1.3 4 3.3 0 2-0.7 2.4-1.9 2.9l2.1 3zm-2-7.4h-1.7v3.2h1.7c1.3 0 2-0.6 2-1.6 0-1-0.7-1.6-2-1.6z"/>
		<path class="s0" d="m747.7 510.5h2.1v9.2h-2.1z"/>
		<path class="s1" d="m504.7 485.3h270.8v52.7h-270.8z"/>
	</g>
</svg>